<?xml version="1.0" encoding="iso-8859-1"?>
<!-- Generator: Adobe Illustrator 18.1.1, SVG Export Plug-In . SVG Version: 6.00 Build 0)  -->
<svg version="1.1" id="Capa_1" xmlns="http://www.w3.org/2000/svg" xmlns:xlink="http://www.w3.org/1999/xlink" x="0px" y="0px"
	 viewBox="0 0 12 12" style="enable-background:new 0 0 12 12;" xml:space="preserve">
<g>
	<path style="fill:#030104;" d="M6,0C2.687,0,0,2.687,0,6c0,3.312,2.687,6,6,6c3.312,0,6-2.688,6-6C12,2.687,9.312,0,6,0z M6,10
		c-0.346,0-0.681-0.044-1-0.126C6.727,9.43,8,7.864,8,6S6.727,2.57,5,2.126C5.319,2.044,5.654,2,6,2c2.209,0,4,1.791,4,4
		S8.209,10,6,10z"/>
</g>
<g>
</g>
<g>
</g>
<g>
</g>
<g>
</g>
<g>
</g>
<g>
</g>
<g>
</g>
<g>
</g>
<g>
</g>
<g>
</g>
<g>
</g>
<g>
</g>
<g>
</g>
<g>
</g>
<g>
</g>
</svg>
